<?xml version="1.0" standalone="no"?>
<!DOCTYPE svg PUBLIC "-//W3C//DTD SVG 20010904//EN"
 "http://www.w3.org/TR/2001/REC-SVG-20010904/DTD/svg10.dtd">
<svg version="1.0" xmlns="http://www.w3.org/2000/svg"
 width="276.000000pt" height="248.000000pt" viewBox="0 0 276.000000 248.000000"
 preserveAspectRatio="xMidYMid meet">

<g transform="translate(0.000000,248.000000) scale(0.100000,-0.100000)"
fill="#000000" stroke="none">
<path d="M1321 2469 c-116 -23 -206 -123 -218 -243 -4 -43 -2 -54 16 -70 17
-16 27 -18 49 -10 21 8 29 19 38 59 16 75 39 111 87 140 143 83 316 -67 249
-217 -20 -46 -45 -70 -124 -118 -58 -36 -88 -89 -88 -159 0 -38 -6 -56 -22
-75 -13 -14 -111 -66 -221 -117 l-198 -92 61 -29 61 -30 167 78 c92 42 177 84
189 93 36 27 63 84 63 137 0 65 16 93 70 121 100 53 151 129 158 238 4 62 1
80 -20 126 -34 75 -70 114 -131 143 -61 29 -125 37 -186 25z"/>
<path d="M1499 1708 c-7 -13 -18 -32 -25 -44 -13 -19 -7 -23 131 -89 l145 -68
62 31 c59 29 61 31 38 40 -14 6 -92 42 -174 81 -81 39 -152 71 -157 71 -4 0
-14 -10 -20 -22z"/>
<path d="M683 1475 c-29 -8 -87 -32 -130 -53 -43 -22 -154 -74 -247 -118 -136
-63 -178 -87 -217 -126 -50 -50 -89 -133 -89 -191 0 -41 31 -92 72 -117 31
-19 51 -20 336 -20 166 0 302 2 302 5 0 2 -10 25 -22 50 l-22 45 -259 0 c-159
0 -266 4 -278 10 -26 15 -24 54 6 106 32 55 55 70 195 134 104 47 121 51 172
48 67 -5 125 -39 163 -97 14 -21 93 -182 176 -357 82 -175 189 -401 236 -501
49 -104 98 -195 116 -213 55 -56 102 -75 192 -75 70 0 86 4 127 28 26 15 59
42 72 60 14 19 70 130 125 248 220 476 353 755 381 800 54 83 142 125 225 106
22 -5 92 -34 155 -65 126 -63 166 -100 177 -167 10 -64 5 -65 -293 -65 l-261
0 -21 -50 -21 -50 303 0 c298 0 304 0 337 23 74 49 86 139 32 238 -48 89 -72
104 -434 273 -103 47 -211 91 -241 97 -101 20 -216 -19 -292 -101 -47 -51 -43
-42 -249 -490 -261 -568 -262 -570 -291 -570 -16 0 -31 10 -44 27 -10 16 -99
201 -198 413 -98 212 -197 412 -219 445 -24 36 -59 72 -87 90 -26 17 -47 33
-47 37 -2 13 110 48 152 48 53 0 113 -28 154 -71 32 -34 48 -66 233 -464 56
-121 106 -224 110 -229 5 -5 20 16 35 49 l26 59 -55 120 c-181 402 -227 491
-274 539 -87 88 -208 123 -319 92z m1402 -116 c30 -11 55 -23 55 -27 0 -4 -18
-18 -40 -31 -77 -48 -102 -92 -306 -528 -59 -126 -144 -309 -190 -407 -46 -99
-91 -191 -100 -204 -24 -36 -97 -65 -145 -57 -38 7 -109 56 -109 76 0 4 21 30
48 56 42 43 69 97 272 538 201 437 230 495 271 537 70 70 144 85 244 47z"/>
</g>
</svg>
